<svg xmlns="http://www.w3.org/2000/svg" viewBox="0 0 512 512" width="512" height="512" role="img" aria-label="QCM CPFAE">
  <defs>
    <linearGradient id="g" x1="0" y1="0" x2="1" y2="1">
      <stop offset="0" stop-color="#ea7317"/>
      <stop offset="1" stop-color="#1f8a4c"/>
    </linearGradient>
  </defs>
  <rect width="512" height="512" rx="112" fill="url(#g)"/>
  <g fill="#ffffff">
    <path d="M256 116c-8 0-14 6-14 14v10h-70c-8 0-14 6-14 14s6 14 14 14h70v200h-46c-8 0-14 6-14 14s6 14 14 14h120c8 0 14-6 14-14s-6-14-14-14h-46V168h70c8 0 14-6 14-14s-6-14-14-14h-70v-10c0-8-6-14-14-14z"/>
    <path d="M150 196l-46 96c-4 22 18 40 46 40s50-18 46-40l-46-96zm0 44l24 50h-48z"/>
    <path d="M362 196l-46 96c-4 22 18 40 46 40s50-18 46-40l-46-96zm0 44l24 50h-48z"/>
  </g>
</svg>
